<?xml version="1.0" encoding="UTF-8"?>
<svg width="50px" height="50px" viewBox="0 0 50 50" version="1.1" xmlns="http://www.w3.org/2000/svg" xmlns:xlink="http://www.w3.org/1999/xlink">
    <!-- Generator: Sketch 52.5 (67469) - http://www.bohemiancoding.com/sketch -->
    <title>Facebook Icon</title>
    <desc>Created with Sketch.</desc>
    <g id="Facebook-Icon" stroke="none" stroke-width="1" fill="none" fill-rule="evenodd">
        <path d="M21.8855053,40.7291606 L27.6642269,40.7291606 L27.6642269,26.4500241 L32.4913101,26.4500241 L33.3551465,20.6039535 L27.6642269,20.6039535 C27.6642269,18.5669364 27.6642269,17.2852806 27.6642269,16.758986 C27.6642269,15.9695441 27.7226135,15.4256407 28.2497044,14.9212699 C28.7767953,14.4168991 29.5025009,14.4168991 30.5566919,14.3652514 C31.0818965,14.3395202 32.0147147,14.3395202 33.3551465,14.3652514 L33.3551465,9.30885124 C29.7038531,8.77123996 27.1486188,8.93548572 25.6894438,9.80158851 C23.5006812,11.1007427 22.6194085,12.4741601 22.2657023,14.0274246 C22.0154166,15.1265284 21.8886843,17.3187047 21.8855053,20.6039535 L17,20.6039535 L17,26.4500241 L21.8855053,26.4500241 L21.8855053,40.7291606 Z" id="Path-2" stroke="#B31B1B" stroke-width="2"></path>
    </g>
</svg>